<?xml version="1.0" encoding="utf-8"?>
<!-- Generator: Adobe Illustrator 25.4.1, SVG Export Plug-In . SVG Version: 6.00 Build 0)  -->
<svg version="1.1" xmlns="http://www.w3.org/2000/svg" xmlns:xlink="http://www.w3.org/1999/xlink" x="0px" y="0px"
	 viewBox="0 0 792 612" style="enable-background:new 0 0 792 612;" xml:space="preserve">
<style type="text/css">
	.st0{fill:none;stroke:#000000;stroke-width:2;stroke-miterlimit:10;}
	.st1{fill:none;stroke:#F1F2F2;stroke-width:2;stroke-miterlimit:10;}
	.st2{fill:none;stroke:#000000;stroke-miterlimit:10;}
	.st3{fill:none;stroke:#F1F2F2;stroke-miterlimit:10;}
	.st4{fill:#F1F2F2;}
</style>
<g id="Layer_4">
	<rect x="375.06" y="118.34" width="345.97" height="442.95"/>
</g>
<g id="Layer_2">
	<path class="st0" d="M193.34,176.65c0,0-46.85-60.84-55.98-59.02s-18.25,69.97-18.25,69.97s-35.5,54.15-45.44,54.15
		c0,0,2.85,246.37,5.89,246.37c3.04,0,96.74,0,96.74,0s-6.08-106.44,34.07-111.91c0,0,60.23,23.12,63.28,21.29
		c3.04-1.83,40.76-38.33,43.81-46.85c0,0,21.29-28.6,12.78-34.07c-8.52-5.48-27.99-32.14-27.99-32.14s-12.78-39.05-12.17-41.48
		c0.61-2.43-51.11-37.11-51.11-37.11l-6.69-72.4L193.34,176.65z"/>
	<path class="st1" d="M542.93,184.73c0,0-46.85-60.84-55.98-59.02s-18.25,69.97-18.25,69.97s-35.5,54.15-45.44,54.15
		c0,0,2.85,246.37,5.89,246.37s96.74,0,96.74,0s-6.08-106.44,34.07-111.91c0,0,60.23,23.12,63.28,21.29
		c3.04-1.83,40.76-38.33,43.81-46.85c0,0,21.29-28.6,12.78-34.07c-8.52-5.48-27.99-32.14-27.99-32.14s-12.78-39.05-12.17-41.48
		c0.61-2.43-51.11-37.11-51.11-37.11l-6.69-72.4L542.93,184.73z"/>
	<g id="Layer_3">
		<path class="st2" d="M232.28,133.45c0,0-13.3,51.21-5.85,62.29c7.46,11.08,12.35,8.05,12.35,8.05"/>
		<path class="st2" d="M198.09,171.39l22.14,56.86c0,0,58.36,18.1,58.36,16.99s-6.65-16.69-6.65-16.69"/>
		<polyline class="st2" points="278.59,245.24 286.34,264.45 294.9,261.25 		"/>
		<polyline class="st2" points="286.34,264.45 278.59,279.59 307.4,302.86 312.84,298.21 		"/>
		<polyline class="st2" points="307.4,302.86 324.76,324.29 332.24,321.39 		"/>
		<path class="st2" d="M324.76,324.29c0,0-4.45,4.44-22.01,0c0,0,14.68,18.94,14.46,26.96"/>
		<path class="st2" d="M305.81,328.45c0.4,0.57,23.68-2.36,20.39,0l-12.89,11.79"/>
		<polyline class="st2" points="265.9,360.76 227.33,382.59 216.37,352.47 296.49,365.89 		"/>
		<line class="st2" x1="253.94" y1="367.53" x2="288.24" y2="383.94"/>
		<path class="st0" d="M210.38,376.21c0,0-43.97-1.2-51.15-9.62s-19.4-41.77-19.4-41.77"/>
		<polyline class="st2" points="216.37,352.47 158.44,291.87 74.59,372.93 		"/>
		<line class="st2" x1="218.03" y1="357.04" x2="170.05" y2="371.52"/>
		<path class="st2" d="M146.14,340.88c0.08,0.19,53.54-5.87,53.54-5.87"/>
		<path class="st2" d="M187.99,322.78c-0.2-0.21,0.86-77.49,0.86-77.49l45.06,42.2l-0.8,17.94l25.11,16.08l-10.63,10.9l51.39,16.95"
			/>
		<line class="st2" x1="279.49" y1="300.38" x2="258.23" y2="321.5"/>
		<path class="st2" d="M262.22,317.53c0.07-0.07,38.69,18.99,38.69,18.99"/>
		<path class="st2" d="M278.59,279.59l-11.86-3.54l-11.29-18.19l-41.46-4.65l21.26,10.1c0,0.66-1.39,25.49-1.39,25.49"/>
		<polyline class="st2" points="235.24,263.3 253.94,274.73 302.75,324.29 296.49,365.89 305.05,366.6 		"/>
		<line class="st2" x1="253.94" y1="274.73" x2="266.73" y2="276.05"/>
		<line class="st2" x1="255.44" y1="257.86" x2="256.82" y2="239.38"/>
		<polyline class="st2" points="213.98,253.21 188.85,245.29 181.16,245.24 175.24,205.37 173.98,169.76 134.34,120.51 
			128.9,219.98 		"/>
		<path class="st2" d="M174.7,189.96c0,0,11.98,3.12,21.73,5.66c-0.33-0.38-0.52-0.6-0.52-0.6l-21.92-25.25"/>
		<path class="st2" d="M195.91,195.01c0.52,0.6,13.25,4.83,13.25,4.83"/>
		<path class="st2" d="M177.98,223.8c-1.64,2.31-19.54,68.07-19.54,68.07"/>
		<polyline class="st2" points="169.56,251.7 128.9,219.98 121.57,171.39 		"/>
		<path class="st2" d="M124.7,270.86c0,0,1.41-17.05,2.73-33.03c-5.56-5.85-24.99-26.29-24.99-26.29"/>
		<line class="st2" x1="128.9" y1="219.98" x2="127.43" y2="237.83"/>
		<line class="st2" x1="85.95" y1="232.22" x2="152.07" y2="298.02"/>
		<polyline class="st2" points="109.92,256.07 88.57,313.57 74.59,302.86 		"/>
		<path class="st2" d="M88.57,313.57c0,0,26.05,20.66,25.25,21.43l66.16,88.29"/>
		<polyline class="st2" points="162.91,369.14 157.62,393.46 146.14,488.13 		"/>
		<path class="st2" d="M153.88,424.25c-1.36-0.64-77.27-3.1-77.27-3.31"/>
		<path class="st3" d="M581.87,141.53c0,0-13.3,51.21-5.85,62.29c7.46,11.08,12.35,8.05,12.35,8.05"/>
		<path class="st3" d="M547.67,179.47l22.14,56.86c0,0,58.36,18.1,58.36,16.99s-6.65-16.69-6.65-16.69"/>
		<polyline class="st3" points="628.17,253.32 635.93,272.53 644.49,269.33 		"/>
		<polyline class="st3" points="635.93,272.53 628.17,287.68 656.98,310.94 662.43,306.29 		"/>
		<polyline class="st3" points="656.98,310.94 674.35,332.37 681.83,329.47 		"/>
		<path class="st3" d="M674.35,332.37c0,0-4.45,4.44-22.01,0c0,0,14.68,18.94,14.46,26.96"/>
		<path class="st3" d="M655.4,336.53c0.4,0.57,23.68-2.36,20.39,0l-12.89,11.79"/>
		<polyline class="st3" points="615.49,368.84 576.92,390.68 565.96,360.55 646.08,373.97 		"/>
		<line class="st3" x1="603.53" y1="375.61" x2="637.83" y2="392.02"/>
		<path class="st1" d="M559.97,384.3c0,0-43.97-1.2-51.15-9.62s-19.4-41.77-19.4-41.77"/>
		<polyline class="st3" points="565.96,360.55 508.02,299.96 424.18,381.01 		"/>
		<line class="st3" x1="567.62" y1="365.12" x2="519.64" y2="379.6"/>
		<path class="st3" d="M495.73,348.96c0.08,0.19,53.54-5.87,53.54-5.87"/>
		<path class="st3" d="M537.58,330.86c-0.2-0.21,0.86-77.49,0.86-77.49l45.06,42.2l-0.8,17.94l25.11,16.08l-10.63,10.9l51.39,16.95"
			/>
		<line class="st3" x1="629.07" y1="308.46" x2="607.81" y2="329.59"/>
		<path class="st3" d="M611.81,325.61c0.07-0.07,38.69,18.99,38.69,18.99"/>
		<path class="st3" d="M628.17,287.68l-11.86-3.54l-11.29-18.19l-41.46-4.65l21.26,10.1c0,0.66-1.39,25.49-1.39,25.49"/>
		<polyline class="st3" points="584.83,271.39 603.53,282.81 652.34,332.37 646.08,373.97 654.64,374.68 		"/>
		<line class="st3" x1="603.53" y1="282.81" x2="616.32" y2="284.13"/>
		<line class="st3" x1="605.02" y1="265.94" x2="606.41" y2="247.46"/>
		<polyline class="st3" points="563.57,261.29 538.44,253.37 530.75,253.32 524.83,213.45 523.57,177.84 483.93,128.6 
			478.49,228.07 		"/>
		<path class="st3" d="M524.29,198.04c0,0,11.98,3.12,21.73,5.66c-0.33-0.38-0.52-0.6-0.52-0.6l-21.92-25.25"/>
		<path class="st3" d="M545.49,203.09c0.52,0.6,13.25,4.83,13.25,4.83"/>
		<path class="st3" d="M527.57,231.89c-1.64,2.31-19.54,68.07-19.54,68.07"/>
		<polyline class="st3" points="519.15,259.78 478.49,228.07 471.16,179.47 		"/>
		<path class="st3" d="M474.29,278.94c0,0,1.41-17.05,2.73-33.03c-5.56-5.85-24.99-26.29-24.99-26.29"/>
		<line class="st3" x1="478.49" y1="228.07" x2="477.02" y2="245.91"/>
		<line class="st3" x1="435.54" y1="240.3" x2="501.66" y2="306.1"/>
		<polyline class="st3" points="459.51,264.15 438.15,321.66 424.18,310.94 		"/>
		<path class="st3" d="M438.15,321.66c0,0,26.05,20.66,25.25,21.43l66.16,88.29"/>
		<polyline class="st3" points="512.5,377.22 507.2,401.54 495.73,496.21 		"/>
		<path class="st3" d="M503.47,432.33c-1.36-0.64-77.27-3.1-77.27-3.31"/>
	</g>
	<g>
		<path d="M82.49,507.36l2.12-2.92h2.86c0.68,0,1.48,0,2.02,0.03c-0.31-0.41-0.78-1.1-1.16-1.65l-2.04-3.01l-5.34,7.55H76.8
			l7.29-10.28c0.48-0.66,1.17-1.27,2.28-1.27c1.05,0,1.75,0.56,2.24,1.27l7.1,10.28H82.49z"/>
		<path d="M113.11,507.36h-4.71l-2.53-3.01h-5.41v3.01h-3.52v-5.81h9.89c1.09,0,1.94-0.49,1.94-1.27c0-0.88-0.73-1.33-1.94-1.33
			h-9.89l2.29-2.96h7.31c2.58,0,5.85,0.82,5.85,4.06c0,1.77-1.1,3.23-2.97,3.6c0.39,0.29,0.82,0.7,1.6,1.5L113.11,507.36z"/>
		<path d="M116.54,495.99l5.12,7.55l5.34-7.55h4.15l-7.27,10.28c-0.49,0.66-1.19,1.27-2.28,1.27c-1.05,0-1.75-0.56-2.24-1.27
			l-7.12-10.28H116.54z"/>
		<path d="M132.83,507.36l2.12-2.92h2.86c0.68,0,1.48,0,2.02,0.03c-0.31-0.41-0.78-1.1-1.16-1.65l-2.04-3.01l-5.34,7.55h-4.16
			l7.29-10.28c0.48-0.66,1.17-1.27,2.28-1.27c1.05,0,1.75,0.56,2.24,1.27l7.1,10.28H132.83z"/>
		<path d="M154.93,507.36h-7.62v-7.09h3.54v4.16h4.08c1.96,0,3.37-1.09,3.37-2.72c0-1.6-1.46-2.77-3.37-2.77h-7.62l2.24-2.96h5.37
			c3.98,0,6.85,2.29,6.85,5.58C161.78,504.86,158.87,507.36,154.93,507.36z"/>
		<path d="M166.79,507.36l2.12-2.92h2.86c0.68,0,1.48,0,2.02,0.03c-0.31-0.41-0.78-1.1-1.16-1.65l-2.04-3.01l-5.34,7.55h-4.16
			l7.29-10.28c0.48-0.66,1.17-1.27,2.28-1.27c1.05,0,1.75,0.56,2.24,1.27l7.1,10.28H166.79z"/>
		<path d="M199.2,503.13c-0.99-1.75-1.44-2.6-1.84-3.42c-0.36,0.82-0.82,1.65-1.8,3.4l-1.82,3.23c-0.41,0.73-1.02,1.21-1.94,1.21
			c-0.88,0-1.67-0.51-1.97-1.56l-2.89-10h3.52l1.07,3.96c0.36,1.27,0.59,2.21,0.76,3.13c0.37-0.8,0.82-1.67,1.6-3.15l1.53-2.86
			c0.59-1.12,1.17-1.27,2.01-1.27c0.85,0,1.44,0.15,2.04,1.27l1.51,2.87c0.85,1.56,1.24,2.36,1.6,3.13c0.19-0.9,0.44-1.87,0.78-3.13
			l1.07-3.96h3.43l-2.94,10c-0.31,1.05-1.09,1.56-1.97,1.56c-0.9,0-1.51-0.46-1.94-1.21L199.2,503.13z"/>
		<path d="M222.42,504.44l-2.26,2.92h-10.95v-11.37h13.17l-2.28,2.96h-7.36v1.36h9.01l-2.02,2.58h-6.99v1.55H222.42z"/>
		<path d="M234.16,500.53c2.77,0,4.27,1.04,4.27,3.11c0,2.33-1.41,3.72-4.88,3.72h-10.59l2.26-2.92h8.6c0.83,0,1.21-0.24,1.21-0.83
			c0-0.58-0.37-0.82-1.21-0.82h-6.19c-2.92,0-4.27-1.31-4.27-3.26c0-2.14,1.43-3.54,4.88-3.54h9.88l-2.26,2.96h-7.89
			c-0.82,0-1.21,0.2-1.21,0.78c0,0.58,0.39,0.8,1.21,0.8H234.16z"/>
		<path d="M253.1,495.99l-2.28,2.96h-4.06v8.41h-3.52v-8.41h-5.34l2.28-2.96H253.1z"/>
	</g>
	<g>
		<path d="M88.22,514.79c2.77,0,4.27,1.04,4.27,3.11c0,2.33-1.41,3.72-4.88,3.72H77.02l2.26-2.92h8.6c0.83,0,1.21-0.24,1.21-0.83
			c0-0.58-0.37-0.82-1.21-0.82h-6.19c-2.92,0-4.27-1.31-4.27-3.26c0-2.14,1.43-3.54,4.88-3.54h9.88l-2.26,2.96h-7.89
			c-0.82,0-1.21,0.2-1.21,0.78c0,0.58,0.39,0.8,1.21,0.8H88.22z"/>
		<path d="M107.16,510.25l-2.28,2.96h-4.06v8.41H97.3v-8.41h-5.34l2.28-2.96H107.16z"/>
		<path d="M121.44,518.7l-2.26,2.92h-10.95v-11.37h13.17l-2.28,2.96h-7.36v1.36h9.01l-2.02,2.58h-6.99v1.55H121.44z"/>
		<path d="M126.88,521.62l2.12-2.92h2.86c0.68,0,1.48,0,2.02,0.03c-0.31-0.41-0.78-1.1-1.16-1.65l-2.04-3.01l-5.34,7.55h-4.16
			l7.29-10.28c0.48-0.66,1.17-1.27,2.28-1.27c1.05,0,1.75,0.56,2.24,1.27l7.1,10.28H126.88z"/>
		<path d="M149.22,514.48c1,1.75,1.44,2.6,1.84,3.4c0.37-0.8,0.82-1.63,1.82-3.38l1.82-3.23c0.41-0.73,1.02-1.21,1.94-1.21
			c0.88,0,1.67,0.51,1.97,1.56l2.87,10h-3.5l-1.07-3.96c-0.36-1.29-0.6-2.21-0.78-3.13c-0.37,0.8-0.8,1.67-1.58,3.14l-1.53,2.86
			c-0.6,1.12-1.17,1.27-2.02,1.27s-1.43-0.15-2.02-1.27l-1.53-2.87c-0.83-1.56-1.24-2.36-1.6-3.13c-0.17,0.9-0.42,1.85-0.77,3.13
			l-1.07,3.96h-3.45l2.94-10c0.31-1.05,1.1-1.56,1.99-1.56c0.9,0,1.51,0.46,1.92,1.21L149.22,514.48z"/>
		<path d="M183.74,518.7l-2.26,2.92h-5.71c-3.94,0-6.85-2.5-6.85-5.8c0-3.33,2.91-5.58,6.85-5.58h7.97l-2.26,2.96h-5.71
			c-1.9,0-3.33,1.14-3.33,2.77c0,1.62,1.41,2.72,3.33,2.72H183.74z"/>
		<path d="M197.29,518.7l-2.28,2.92h-10.05v-11.37h3.52v8.45H197.29z"/>
		<path d="M213.24,516.66c0,3.43-2.36,5.15-7.09,5.15c-5.47,0-7.84-1.72-7.84-5.15v-6.41h3.5v6.41c0,1.68,0.71,2.23,4.33,2.23
			c2.7,0,3.55-0.63,3.55-2.23v-6.41h3.54V516.66z"/>
		<path d="M229.85,518.31c0,1.89-1.04,3.31-4.62,3.31h-10v-6.92h10.06c0.51,0,0.99-0.19,0.99-0.77c0-0.56-0.49-0.73-0.99-0.73
			h-10.06l2.38-2.96h7.53c2.72,0,4.47,1.05,4.47,3.14c0,1.34-0.77,2.09-1.55,2.38C229.05,516.06,229.85,516.95,229.85,518.31z
			 M218.76,517.14v1.56h6.48c0.76,0,1.09-0.27,1.09-0.8c0-0.49-0.32-0.76-1.09-0.76H218.76z"/>
	</g>
	<g>
		<path d="M79.12,526.41h4.7c2.43,0,3.44,0.98,3.44,2.49c0,1.38-0.95,2.3-3.01,2.3h-3.81c-0.58,0-0.85,0.17-0.85,0.58v0.59h7.74
			l-1.59,2.06h-8.54v-2.63c0-1.46,1.06-2.19,3.01-2.19h3.81c0.58,0,0.85-0.16,0.85-0.56c0-0.41-0.28-0.55-0.85-0.55h-6.49
			L79.12,526.41z"/>
		<path d="M98.58,530.42c0,2.87-1.71,4.15-5.12,4.15s-5.12-1.28-5.12-4.15s1.71-4.14,5.12-4.14S98.58,527.55,98.58,530.42z
			 M96.13,530.42c0-1.73-0.71-2.05-2.67-2.05s-2.67,0.32-2.67,2.05c0,1.73,0.71,2.06,2.67,2.06S96.13,532.15,96.13,530.42z"/>
		<path d="M101.59,526.41h4.7c2.43,0,3.44,0.98,3.44,2.49c0,1.38-0.95,2.3-3.01,2.3h-3.81c-0.58,0-0.85,0.17-0.85,0.58v0.59h7.74
			l-1.59,2.06h-8.54v-2.63c0-1.46,1.06-2.19,3.01-2.19h3.81c0.58,0,0.85-0.16,0.85-0.56c0-0.41-0.28-0.55-0.85-0.55H100
			L101.59,526.41z"/>
		<path d="M111.95,526.41h2.94v8.02h-2.48v-5.94h-1.95L111.95,526.41z"/>
		<path d="M121.05,529.6l-1.21,1.55h-4.01l1.21-1.55H121.05z"/>
		<path d="M123.73,526.41h4.7c2.43,0,3.44,0.98,3.44,2.49c0,1.38-0.95,2.3-3.01,2.3h-3.81c-0.58,0-0.85,0.17-0.85,0.58v0.59h7.74
			l-1.59,2.06h-8.54v-2.63c0-1.46,1.06-2.19,3.01-2.19h3.81c0.58,0,0.85-0.16,0.85-0.56c0-0.41-0.28-0.55-0.85-0.55h-6.49
			L123.73,526.41z"/>
		<path d="M143.19,530.42c0,2.87-1.71,4.15-5.12,4.15s-5.12-1.28-5.12-4.15s1.71-4.14,5.12-4.14S143.19,527.55,143.19,530.42z
			 M140.75,530.42c0-1.73-0.71-2.05-2.67-2.05s-2.67,0.32-2.67,2.05c0,1.73,0.71,2.06,2.67,2.06S140.75,532.15,140.75,530.42z"/>
		<path d="M146.21,526.41h4.7c2.43,0,3.44,0.98,3.44,2.49c0,1.38-0.95,2.3-3.01,2.3h-3.81c-0.58,0-0.85,0.17-0.85,0.58v0.59h7.74
			l-1.59,2.06h-8.54v-2.63c0-1.46,1.06-2.19,3.01-2.19h3.81c0.58,0,0.85-0.16,0.85-0.56c0-0.41-0.28-0.55-0.85-0.55h-6.49
			L146.21,526.41z"/>
		<path d="M157.43,526.41h4.7c2.43,0,3.44,0.98,3.44,2.49c0,1.38-0.95,2.3-3.01,2.3h-3.81c-0.58,0-0.85,0.17-0.85,0.58v0.59h7.74
			l-1.59,2.06h-8.54v-2.63c0-1.46,1.06-2.19,3.01-2.19h3.81c0.58,0,0.85-0.16,0.85-0.56c0-0.41-0.28-0.55-0.85-0.55h-6.49
			L157.43,526.41z"/>
	</g>
	<g>
		<path class="st4" d="M429.15,523.29l2.12-2.92h2.86c0.68,0,1.48,0,2.02,0.03c-0.31-0.41-0.78-1.1-1.16-1.65l-2.04-3.01l-5.34,7.55
			h-4.17l7.29-10.28c0.48-0.66,1.17-1.27,2.28-1.27c1.05,0,1.75,0.56,2.24,1.27l7.1,10.28H429.15z"/>
		<path class="st4" d="M459.76,523.29h-4.71l-2.53-3.01h-5.41v3.01h-3.52v-5.81h9.89c1.09,0,1.94-0.49,1.94-1.27
			c0-0.88-0.73-1.33-1.94-1.33h-9.89l2.29-2.96h7.31c2.58,0,5.85,0.82,5.85,4.06c0,1.77-1.11,3.23-2.97,3.6
			c0.39,0.29,0.82,0.7,1.6,1.5L459.76,523.29z"/>
		<path class="st4" d="M463.2,511.92l5.12,7.55l5.34-7.55h4.15l-7.28,10.28c-0.49,0.66-1.19,1.27-2.28,1.27
			c-1.05,0-1.75-0.56-2.24-1.27l-7.12-10.28H463.2z"/>
		<path class="st4" d="M479.49,523.29l2.12-2.92h2.86c0.68,0,1.48,0,2.02,0.03c-0.31-0.41-0.78-1.1-1.16-1.65l-2.04-3.01l-5.34,7.55
			h-4.16l7.29-10.28c0.48-0.66,1.17-1.27,2.28-1.27c1.05,0,1.75,0.56,2.24,1.27l7.11,10.28H479.49z"/>
		<path class="st4" d="M501.58,523.29h-7.62v-7.09h3.54v4.16h4.08c1.96,0,3.37-1.09,3.37-2.72c0-1.6-1.46-2.77-3.37-2.77h-7.62
			l2.24-2.96h5.37c3.98,0,6.85,2.29,6.85,5.58C508.44,520.79,505.53,523.29,501.58,523.29z"/>
		<path class="st4" d="M513.45,523.29l2.12-2.92h2.86c0.68,0,1.48,0,2.02,0.03c-0.31-0.41-0.78-1.1-1.16-1.65l-2.04-3.01l-5.34,7.55
			h-4.16l7.29-10.28c0.48-0.66,1.17-1.27,2.28-1.27c1.05,0,1.75,0.56,2.24,1.27l7.11,10.28H513.45z"/>
		<path class="st4" d="M545.85,519.06c-0.99-1.75-1.44-2.6-1.83-3.42c-0.36,0.82-0.82,1.65-1.8,3.4l-1.82,3.23
			c-0.41,0.73-1.02,1.21-1.94,1.21c-0.88,0-1.67-0.51-1.97-1.56l-2.89-10h3.52l1.07,3.96c0.36,1.27,0.59,2.21,0.76,3.13
			c0.37-0.8,0.82-1.67,1.6-3.15l1.53-2.86c0.59-1.12,1.17-1.27,2.01-1.27c0.85,0,1.45,0.15,2.04,1.27l1.51,2.87
			c0.85,1.56,1.24,2.36,1.6,3.13c0.19-0.9,0.44-1.87,0.78-3.13l1.07-3.96h3.43l-2.94,10c-0.31,1.05-1.09,1.56-1.97,1.56
			c-0.9,0-1.51-0.46-1.94-1.21L545.85,519.06z"/>
		<path class="st4" d="M569.07,520.36l-2.26,2.92h-10.95v-11.37h13.17l-2.28,2.96h-7.36v1.36h9.01l-2.02,2.58h-6.99v1.55H569.07z"/>
		<path class="st4" d="M580.82,516.46c2.77,0,4.27,1.04,4.27,3.11c0,2.33-1.41,3.72-4.88,3.72h-10.59l2.26-2.92h8.6
			c0.83,0,1.21-0.24,1.21-0.83c0-0.58-0.37-0.82-1.21-0.82h-6.19c-2.92,0-4.27-1.31-4.27-3.26c0-2.14,1.43-3.54,4.88-3.54h9.88
			l-2.26,2.96h-7.89c-0.82,0-1.21,0.2-1.21,0.78c0,0.58,0.39,0.8,1.21,0.8H580.82z"/>
		<path class="st4" d="M599.76,511.92l-2.28,2.96h-4.06v8.41h-3.52v-8.41h-5.34l2.28-2.96H599.76z"/>
	</g>
	<g>
		<path class="st4" d="M434.88,530.72c2.77,0,4.27,1.04,4.27,3.11c0,2.33-1.41,3.72-4.88,3.72h-10.59l2.26-2.92h8.6
			c0.83,0,1.21-0.24,1.21-0.83c0-0.58-0.37-0.82-1.21-0.82h-6.19c-2.92,0-4.27-1.31-4.27-3.26c0-2.14,1.43-3.54,4.88-3.54h9.88
			l-2.26,2.96h-7.89c-0.82,0-1.21,0.2-1.21,0.78c0,0.58,0.39,0.8,1.21,0.8H434.88z"/>
		<path class="st4" d="M453.81,526.18l-2.28,2.96h-4.06v8.41h-3.52v-8.41h-5.34l2.28-2.96H453.81z"/>
		<path class="st4" d="M468.09,534.63l-2.26,2.92h-10.95v-11.37h13.17l-2.28,2.96h-7.36v1.36h9.01l-2.02,2.58h-6.99v1.55H468.09z"/>
		<path class="st4" d="M473.54,537.55l2.12-2.92h2.86c0.68,0,1.48,0,2.02,0.03c-0.31-0.41-0.78-1.1-1.16-1.65l-2.04-3.01l-5.34,7.55
			h-4.16l7.29-10.28c0.48-0.66,1.17-1.27,2.28-1.27c1.05,0,1.75,0.56,2.24,1.27l7.11,10.28H473.54z"/>
		<path class="st4" d="M495.87,530.41c1,1.75,1.44,2.6,1.83,3.4c0.37-0.8,0.82-1.63,1.82-3.38l1.82-3.23
			c0.41-0.73,1.02-1.21,1.94-1.21c0.88,0,1.67,0.51,1.97,1.56l2.87,10h-3.5l-1.07-3.96c-0.36-1.29-0.59-2.21-0.78-3.13
			c-0.37,0.8-0.8,1.67-1.58,3.14l-1.53,2.86c-0.59,1.12-1.17,1.27-2.02,1.27c-0.85,0-1.43-0.15-2.02-1.27l-1.53-2.87
			c-0.83-1.56-1.24-2.36-1.6-3.13c-0.17,0.9-0.42,1.85-0.77,3.13l-1.07,3.96h-3.45l2.94-10c0.31-1.05,1.1-1.56,1.99-1.56
			c0.9,0,1.51,0.46,1.92,1.21L495.87,530.41z"/>
		<path class="st4" d="M530.4,534.63l-2.26,2.92h-5.71c-3.94,0-6.85-2.5-6.85-5.8c0-3.33,2.91-5.58,6.85-5.58h7.97l-2.26,2.96h-5.71
			c-1.9,0-3.33,1.14-3.33,2.77c0,1.62,1.41,2.72,3.33,2.72H530.4z"/>
		<path class="st4" d="M543.95,534.63l-2.28,2.92h-10.05v-11.37h3.52v8.45H543.95z"/>
		<path class="st4" d="M559.89,532.59c0,3.43-2.36,5.15-7.09,5.15c-5.47,0-7.84-1.72-7.84-5.15v-6.41h3.5v6.41
			c0,1.68,0.71,2.23,4.33,2.23c2.7,0,3.55-0.63,3.55-2.23v-6.41h3.54V532.59z"/>
		<path class="st4" d="M576.5,534.24c0,1.89-1.04,3.31-4.62,3.31h-10v-6.92h10.06c0.51,0,0.99-0.19,0.99-0.77
			c0-0.56-0.49-0.73-0.99-0.73h-10.06l2.38-2.96h7.53c2.72,0,4.47,1.05,4.47,3.14c0,1.34-0.77,2.09-1.55,2.38
			C575.7,531.99,576.5,532.88,576.5,534.24z M565.42,533.06v1.56h6.48c0.76,0,1.09-0.27,1.09-0.8c0-0.49-0.32-0.76-1.09-0.76H565.42
			z"/>
	</g>
	<g>
		<path class="st4" d="M425.77,542.34h4.7c2.43,0,3.44,0.98,3.44,2.49c0,1.38-0.95,2.3-3.01,2.3h-3.81c-0.58,0-0.85,0.17-0.85,0.58
			v0.59h7.74l-1.59,2.06h-8.54v-2.63c0-1.46,1.06-2.19,3.01-2.19h3.81c0.58,0,0.85-0.16,0.85-0.56c0-0.41-0.28-0.55-0.85-0.55h-6.49
			L425.77,542.34z"/>
		<path class="st4" d="M445.23,546.35c0,2.87-1.71,4.15-5.12,4.15s-5.12-1.28-5.12-4.15s1.71-4.14,5.12-4.14
			S445.23,543.48,445.23,546.35z M442.79,546.35c0-1.73-0.71-2.05-2.67-2.05s-2.67,0.32-2.67,2.05c0,1.73,0.71,2.06,2.67,2.06
			S442.79,548.08,442.79,546.35z"/>
		<path class="st4" d="M448.25,542.34h4.7c2.43,0,3.44,0.98,3.44,2.49c0,1.38-0.95,2.3-3.01,2.3h-3.81c-0.58,0-0.85,0.17-0.85,0.58
			v0.59h7.74l-1.59,2.06h-8.54v-2.63c0-1.46,1.06-2.19,3.01-2.19h3.81c0.58,0,0.85-0.16,0.85-0.56c0-0.41-0.28-0.55-0.85-0.55h-6.49
			L448.25,542.34z"/>
		<path class="st4" d="M458.61,542.34h2.94v8.02h-2.48v-5.94h-1.95L458.61,542.34z"/>
		<path class="st4" d="M467.71,545.53l-1.21,1.55h-4.01l1.21-1.55H467.71z"/>
		<path class="st4" d="M470.39,542.34h4.7c2.43,0,3.44,0.98,3.44,2.49c0,1.38-0.95,2.3-3.01,2.3h-3.81c-0.58,0-0.85,0.17-0.85,0.58
			v0.59h7.74l-1.59,2.06h-8.54v-2.63c0-1.46,1.06-2.19,3.01-2.19h3.81c0.58,0,0.85-0.16,0.85-0.56c0-0.41-0.28-0.55-0.85-0.55h-6.49
			L470.39,542.34z"/>
		<path class="st4" d="M489.85,546.35c0,2.87-1.71,4.15-5.12,4.15s-5.12-1.28-5.12-4.15s1.71-4.14,5.12-4.14
			S489.85,543.48,489.85,546.35z M487.4,546.35c0-1.73-0.71-2.05-2.67-2.05s-2.67,0.32-2.67,2.05c0,1.73,0.71,2.06,2.67,2.06
			S487.4,548.08,487.4,546.35z"/>
		<path class="st4" d="M492.86,542.34h4.7c2.43,0,3.44,0.98,3.44,2.49c0,1.38-0.95,2.3-3.01,2.3h-3.81c-0.58,0-0.85,0.17-0.85,0.58
			v0.59h7.74l-1.59,2.06h-8.54v-2.63c0-1.46,1.06-2.19,3.01-2.19h3.81c0.58,0,0.85-0.16,0.85-0.56c0-0.41-0.28-0.55-0.85-0.55h-6.49
			L492.86,542.34z"/>
		<path class="st4" d="M504.08,542.34h4.7c2.43,0,3.44,0.98,3.44,2.49c0,1.38-0.95,2.3-3.01,2.3h-3.81c-0.58,0-0.85,0.17-0.85,0.58
			v0.59h7.74l-1.59,2.06h-8.54v-2.63c0-1.46,1.06-2.19,3.01-2.19h3.81c0.58,0,0.85-0.16,0.85-0.56c0-0.41-0.28-0.55-0.85-0.55h-6.49
			L504.08,542.34z"/>
	</g>
</g>
</svg>
