<?xml version="1.0" encoding="utf-8"?>
<!-- Generator: Adobe Illustrator 25.4.1, SVG Export Plug-In . SVG Version: 6.00 Build 0)  -->
<svg version="1.1" xmlns="http://www.w3.org/2000/svg" xmlns:xlink="http://www.w3.org/1999/xlink" x="0px" y="0px"
	 viewBox="0 0 792 612" style="enable-background:new 0 0 792 612;" xml:space="preserve">
	<style type="text/css">
		.st0{fill:none;stroke:#000000;stroke-width:2;stroke-miterlimit:10;}
		.st2{fill:none;stroke:#000000;stroke-miterlimit:10;}
	</style>
	<g id="Layer_1" style="transform: translate(-140px, -200px) scale(1.75)">
		<path class="st0" d="M193.34,176.65c0,0-46.85-60.84-55.98-59.02s-18.25,69.97-18.25,69.97s-35.5,54.15-45.44,54.15
			c0,0,2.85,246.37,5.89,246.37c3.04,0,96.74,0,96.74,0s-6.08-106.44,34.07-111.91c0,0,60.23,23.12,63.28,21.29
			c3.04-1.83,40.76-38.33,43.81-46.85c0,0,21.29-28.6,12.78-34.07c-8.52-5.48-27.99-32.14-27.99-32.14s-12.78-39.05-12.17-41.48
			c0.61-2.43-51.11-37.11-51.11-37.11l-6.69-72.4L193.34,176.65z"/>
		<g id="Layer_2">
			<path class="st2" d="M232.28,133.45c0,0-13.3,51.21-5.85,62.29c7.46,11.08,12.35,8.05,12.35,8.05"/>
			<path class="st2" d="M198.09,171.39l22.14,56.86c0,0,58.36,18.1,58.36,16.99s-6.65-16.69-6.65-16.69"/>
			<polyline class="st2" points="278.59,245.24 286.34,264.45 294.9,261.25 		"/>
			<polyline class="st2" points="286.34,264.45 278.59,279.59 307.4,302.86 312.84,298.21 		"/>
			<polyline class="st2" points="307.4,302.86 324.76,324.29 332.24,321.39 		"/>
			<path class="st2" d="M324.76,324.29c0,0-4.45,4.44-22.01,0c0,0,14.68,18.94,14.46,26.96"/>
			<path class="st2" d="M305.81,328.45c0.4,0.57,23.68-2.36,20.39,0l-12.89,11.79"/>
			<polyline class="st2" points="265.9,360.76 227.33,382.59 216.37,352.47 296.49,365.89 		"/>
			<line class="st2" x1="253.94" y1="367.53" x2="288.24" y2="383.94"/>
			<path class="st0" d="M210.38,376.21c0,0-43.97-1.2-51.15-9.62s-19.4-41.77-19.4-41.77"/>
			<polyline class="st2" points="216.37,352.47 158.44,291.87 74.59,372.93 		"/>
			<line class="st2" x1="218.03" y1="357.04" x2="170.05" y2="371.52"/>
			<path class="st2" d="M146.14,340.88c0.08,0.19,53.54-5.87,53.54-5.87"/>
			<path class="st2" d="M187.99,322.78c-0.2-0.21,0.86-77.49,0.86-77.49l45.06,42.2l-0.8,17.94l25.11,16.08l-10.63,10.9l51.39,16.95"
				/>
			<line class="st2" x1="279.49" y1="300.38" x2="258.23" y2="321.5"/>
			<path class="st2" d="M262.22,317.53c0.07-0.07,38.69,18.99,38.69,18.99"/>
			<path class="st2" d="M278.59,279.59l-11.86-3.54l-11.29-18.19l-41.46-4.65l21.26,10.1c0,0.66-1.39,25.49-1.39,25.49"/>
			<polyline class="st2" points="235.24,263.3 253.94,274.73 302.75,324.29 296.49,365.89 305.05,366.6 		"/>
			<line class="st2" x1="253.94" y1="274.73" x2="266.73" y2="276.05"/>
			<line class="st2" x1="255.44" y1="257.86" x2="256.82" y2="239.38"/>
			<polyline class="st2" points="213.98,253.21 188.85,245.29 181.16,245.24 175.24,205.37 173.98,169.76 134.34,120.51 
				128.9,219.98 		"/>
			<path class="st2" d="M174.7,189.96c0,0,11.98,3.12,21.73,5.66c-0.33-0.38-0.52-0.6-0.52-0.6l-21.92-25.25"/>
			<path class="st2" d="M195.91,195.01c0.52,0.6,13.25,4.83,13.25,4.83"/>
			<path class="st2" d="M177.98,223.8c-1.64,2.31-19.54,68.07-19.54,68.07"/>
			<polyline class="st2" points="169.56,251.7 128.9,219.98 121.57,171.39 		"/>
			<path class="st2" d="M124.7,270.86c0,0,1.41-17.05,2.73-33.03c-5.56-5.85-24.99-26.29-24.99-26.29"/>
			<line class="st2" x1="128.9" y1="219.98" x2="127.43" y2="237.83"/>
			<line class="st2" x1="85.95" y1="232.22" x2="152.07" y2="298.02"/>
			<polyline class="st2" points="109.92,256.07 88.57,313.57 74.59,302.86 		"/>
			<path class="st2" d="M88.57,313.57c0,0,26.05,20.66,25.25,21.43l66.16,88.29"/>
			<polyline class="st2" points="162.91,369.14 157.62,393.46 146.14,488.13 		"/>
			<path class="st2" d="M153.88,424.25c-1.36-0.64-77.27-3.1-77.27-3.31"/>
		</g>
	</g>
</svg>
